{"title":"Kadhal 2014 (2014) TC Rip XviD MP3 700MB - Shammu","uid":11008194,"size":727388672,"categoryP":"video","categoryS":"movies","magnet":"?xt=urn:btih:08bfe8ccccce831678ffd5284efee004ed63afb6&amp;dn=Kadhal+2014+%282014%29+TC+Rip+XviD+MP3+700MB+-+Shammu&amp;tr=udp%3A%2F%2Ftracker.openbittorrent.com%3A80&amp;tr=udp%3A%2F%2Fopen.demonii.com%3A1337&amp;tr=udp%3A%2F%2Ftracker.coppersurfer.tk%3A6969&amp;tr=udp%3A%2F%2Fexodus.desync.com%3A6969","seeders":1,"leechers":0,"uploader":"TeamXDN","files":1,"time":1410285032,"description":"Kadhal 2014 (2014) TC Rip XviD MP3 700MB - Shammu\n\nFormat : AVI\nFormat/Info : Audio Video Interleave\nFile size : 694 MiB\nDuration : 2h 9mn\nOverall bit rate : 751 Kbps\n\nVideo\nID : 0\nFormat : MPEG-4 Visual\nFormat profile : Advanced Simple@L5\nFormat settings, BVOP : 2\nFormat settings, QPel : No\nFormat settings, GMC : No warppoints\nFormat settings, Matrix : Default (H.263)\nCodec ID : XVID\nCodec ID/Hint : XviD\nDuration : 2h 9mn\nBit rate : 666 Kbps\nWidth : 608 pixels\nHeight : 256 pixels\nDisplay aspect ratio : 2.40:1\nFrame rate : 20.000 fps\nColor space : YUV\nChroma subsampling : 4:2:0\nBit depth : 8 bits\nScan type : Progressive\nCompression mode : Lossy\nBits/(Pixel*Frame) : 0.214\nStream size : 615 MiB (89%)\nWriting library : XviD 1.2.1 (UTC 2008-12-04)\n\nAudio\nID : 1\nFormat : MPEG Audio\nFormat version : Version 1\nFormat profile : Layer 3\nMode : Joint stereo\nMode extension : MS Stereo\nCodec ID : 55\nCodec ID/Hint : MP3\nDuration : 2h 9mn\nBit rate mode : Constant\nBit rate : 80.0 Kbps\nChannel(s) : 2 channels\nSampling rate : 32.0 KHz\nCompression mode : Lossy\nStream size : 73.9 MiB (11%)\nAlignment : Aligned on interleaves\nInterleave, duration : 200 ms (4.00 video frames)\nInterleave, preload duration : 216 ms\nTitle : Kadhal 2014 (2014\nWriting library : LAME3.99r\nEncoding settings : -m j -V 4 -q 2 -lowpass 13.5 -b 80","torrent":{"xt":"urn:btih:08bfe8ccccce831678ffd5284efee004ed63afb6","amp;dn":"Kadhal+2014+%282014%29+TC+Rip+XviD+MP3+700MB+-+Shammu","amp;tr":["udp%3A%2F%2Ftracker.openbittorrent.com%3A80","udp%3A%2F%2Fopen.demonii.com%3A1337","udp%3A%2F%2Ftracker.coppersurfer.tk%3A6969","udp%3A%2F%2Fexodus.desync.com%3A6969"],"infoHash":"08bfe8ccccce831678ffd5284efee004ed63afb6","infoHashBuffer":{"type":"Buffer","data":[8,191,232,204,204,206,131,22,120,255,213,40,78,254,224,4,237,99,175,182]},"announce":[],"urlList":[]}}